# xmcd
#
# Track frame offsets:
# 150
# 18743
# 41972
# 61757
# 80458
# 100435
# 119573
# 141159
# 160999
# 178989
# 202700
# 221016
# 238879
#
# Disc length: 3459 seconds
#
#
# Revision: 0
# Processed by: cddbd v1.5.1PL0 Copyright (c) Steve Scherf et al.
# Submitted via: FreeRIP 2.80 
#
DISCID=c20d810d
DTITLE=Christy Lane's Line Dancing Music
DYEAR=1998
DGENRE=
TTITLE0=Boot Scooting Boogie
TTITLE1=I Feel Lucky
TTITLE2=Watermelon Crawl
TTITLE3=Elvira
TTITLE4=Wild Wild West
TTITLE5=Chattahoochee
TTITLE6=Have Mercy
TTITLE7=Neon Moon
TTITLE8=Dumas Walker
TTITLE9=Achy Breaky Heart
TTITLE10=Dream on Texas Ladies
TTITLE11=Yippy Ti Yi Yo
TTITLE12=Ecectric Slide
EXTD=
EXTT0=
EXTT1=
EXTT2=
EXTT3=
EXTT4=
EXTT5=
EXTT6=
EXTT7=
EXTT8=
EXTT9=
EXTT10=
EXTT11=
EXTT12=
PLAYORDER=
